<?xml version="1.0" encoding="utf-8"?>
<!-- Generator: Adobe Illustrator 27.5.0, SVG Export Plug-In . SVG Version: 6.00 Build 0)  -->
<svg version="1.1" xmlns="http://www.w3.org/2000/svg" xmlns:xlink="http://www.w3.org/1999/xlink" x="0px" y="0px"
	 viewBox="0 0 1122 1122" style="enable-background:new 0 0 1122 1122;" xml:space="preserve">
<g id="Background">
	
		<linearGradient id="SVGID_1_" gradientUnits="userSpaceOnUse" x1="1031.5034" y1="-2039.9264" x2="1031.5034" y2="-917.9264" gradientTransform="matrix(0 1 -1 0 -917.9264 -470.5034)">
		<stop  offset="0" style="stop-color:#FFFFFF"/>
		<stop  offset="0.4816" style="stop-color:#FDFDFD"/>
		<stop  offset="0.766" style="stop-color:#F4F4F5"/>
		<stop  offset="0.9989" style="stop-color:#E6E6E7"/>
		<stop  offset="1" style="stop-color:#E6E6E7"/>
	</linearGradient>
	<polygon style="fill:url(#SVGID_1_);" points="0,1122 0,0 1122,0 1122,1122 	"/>
</g>
<g id="Object">
	
		<linearGradient id="SVGID_00000114761324021295526380000013075998540303681975_" gradientUnits="userSpaceOnUse" x1="-2740.4895" y1="-917.7957" x2="-2689.4961" y2="-917.7957" gradientTransform="matrix(-0.3536 -0.3536 0.7071 -0.7071 -238.9232 -1446.7137)">
		<stop  offset="0" style="stop-color:#FFFFFF"/>
		<stop  offset="1" style="stop-color:#BBBCBF"/>
	</linearGradient>
	<polygon style="fill:url(#SVGID_00000114761324021295526380000013075998540303681975_);" points="144.25,72.125 162.281,90.156 
		0,252.437 0,216.375 	"/>
	<g>
		<polygon style="fill:#FF6C35;" points="0,72.125 0,0 72.125,0 		"/>
	</g>
	
		<linearGradient id="SVGID_00000124133637973739005500000001576485844555061413_" gradientUnits="userSpaceOnUse" x1="-4222.4214" y1="-1059.3179" x2="-4171.4282" y2="-1059.3179" gradientTransform="matrix(-0.3536 -0.3536 0.7071 -0.7071 -509.5987 -1935.5612)">
		<stop  offset="0" style="stop-color:#FFFFFF"/>
		<stop  offset="1" style="stop-color:#BBBCBF"/>
	</linearGradient>
	<polygon style="fill:url(#SVGID_00000124133637973739005500000001576485844555061413_);" points="288.5,216.375 306.531,234.406 
		162.281,378.656 144.25,360.625 	"/>
	
		<linearGradient id="SVGID_00000117662711388768592550000012443169780920596906_" gradientUnits="userSpaceOnUse" x1="-4834.3408" y1="-1263.3197" x2="-4783.3477" y2="-1263.3197" gradientTransform="matrix(-0.3536 -0.3536 0.7071 -0.7071 -509.5987 -1935.5612)">
		<stop  offset="0" style="stop-color:#FFFFFF"/>
		<stop  offset="1" style="stop-color:#BBBCBF"/>
	</linearGradient>
	<polygon style="fill:url(#SVGID_00000117662711388768592550000012443169780920596906_);" points="360.625,576.999 378.656,595.03 
		234.406,739.28 216.375,721.249 	"/>
	
		<linearGradient id="SVGID_00000075127207791590324750000008217348759100000144_" gradientUnits="userSpaceOnUse" x1="-5299.0273" y1="-1648.6973" x2="-5248.0342" y2="-1648.6973" gradientTransform="matrix(-0.3536 -0.3536 0.7071 -0.7071 -509.5987 -1935.5612)">
		<stop  offset="0" style="stop-color:#FFFFFF"/>
		<stop  offset="1" style="stop-color:#BBBCBF"/>
	</linearGradient>
	<polygon style="fill:url(#SVGID_00000075127207791590324750000008217348759100000144_);" points="216.375,1049.875 
		234.406,1067.906 180.312,1122 144.25,1122 	"/>
	
		<linearGradient id="SVGID_00000138547692400643828500000006253560517906840995_" gradientUnits="userSpaceOnUse" x1="-1607.2056" y1="-2738.5386" x2="-1556.2123" y2="-2738.5386" gradientTransform="matrix(-0.3536 0.3536 -0.7071 -0.7071 -2053.948 -552.6435)">
		<stop  offset="0" style="stop-color:#FFFFFF"/>
		<stop  offset="1" style="stop-color:#BBBCBF"/>
	</linearGradient>
	<polygon style="fill:url(#SVGID_00000138547692400643828500000006253560517906840995_);" points="360.625,761.375 378.656,743.344 
		522.906,887.594 504.874,905.625 	"/>
	
		<linearGradient id="SVGID_00000041274230359281420880000010601113562212915340_" gradientUnits="userSpaceOnUse" x1="-1316.5939" y1="-3085.2429" x2="-1265.6007" y2="-3085.2429" gradientTransform="matrix(-0.3536 0.3536 -0.7071 -0.7071 -2565.9824 -837.4492)">
		<stop  offset="0" style="stop-color:#FFFFFF"/>
		<stop  offset="1" style="stop-color:#BBBCBF"/>
	</linearGradient>
	<polygon style="fill:url(#SVGID_00000041274230359281420880000010601113562212915340_);" points="0,833.5 0,797.438 
		162.281,959.719 144.25,977.75 	"/>
	
		<linearGradient id="SVGID_00000148661140869513635150000003474638420745374856_" gradientUnits="userSpaceOnUse" x1="-4630.3677" y1="-1480.0719" x2="-4579.3745" y2="-1480.0719" gradientTransform="matrix(-0.3536 -0.3536 0.7071 -0.7071 -509.5987 -1935.5612)">
		<stop  offset="0" style="stop-color:#FFFFFF"/>
		<stop  offset="1" style="stop-color:#BBBCBF"/>
	</linearGradient>
	<polygon style="fill:url(#SVGID_00000148661140869513635150000003474638420745374856_);" points="144.25,649.124 162.281,667.155 
		0,829.436 0,793.374 	"/>
	
		<linearGradient id="SVGID_00000138564024531972007360000011724549879525062553_" gradientUnits="userSpaceOnUse" x1="-4630.3677" y1="-638.5638" x2="-4579.3745" y2="-638.5638" gradientTransform="matrix(-0.3536 -0.3536 0.7071 -0.7071 -509.5987 -1935.5612)">
		<stop  offset="0" style="stop-color:#FFFFFF"/>
		<stop  offset="1" style="stop-color:#BBBCBF"/>
	</linearGradient>
	<polygon style="fill:url(#SVGID_00000138564024531972007360000011724549879525062553_);" points="793.374,0 829.436,0 
		522.906,306.531 504.874,288.5 	"/>
	
		<linearGradient id="SVGID_00000074428281409400152530000017779584629316639156_" gradientUnits="userSpaceOnUse" x1="-2944.4626" y1="-688.6534" x2="-2893.4692" y2="-688.6534" gradientTransform="matrix(-0.3536 -0.3536 0.7071 -0.7071 -238.9232 -1446.7137)">
		<stop  offset="0" style="stop-color:#FFFFFF"/>
		<stop  offset="1" style="stop-color:#BBBCBF"/>
	</linearGradient>
	<polygon style="fill:url(#SVGID_00000074428281409400152530000017779584629316639156_);" points="360.625,0 396.178,0.509 
		234.406,162.281 216.375,144.25 	"/>
	<g>
		
			<rect x="21.125" y="165.375" transform="matrix(0.7071 -0.7071 0.7071 0.7071 -131.8751 114.3747)" style="fill:#FAC932;" width="102" height="102"/>
		
			<rect x="93.25" y="93.25" transform="matrix(0.7071 -0.7071 0.7071 0.7071 -59.7502 144.2498)" style="fill:#F5B02E;" width="102" height="102"/>
	</g>
	<g>
		<polygon style="fill:#FAC932;" points="360.625,0 288.5,72.125 216.375,0 		"/>
	</g>
	<g>
		
			<rect x="165.375" y="453.874" transform="matrix(0.7071 0.7071 -0.7071 0.7071 420.3747 -5.1258)" style="fill:#FAC932;" width="102" height="102"/>
		
			<rect x="237.5" y="525.999" transform="matrix(0.7071 0.7071 -0.7071 0.7071 492.4995 -35.0009)" style="fill:#F5B02E;" width="102" height="102"/>
	</g>
	<g>
		<polygon style="fill:#00A58F;" points="721.249,72.125 649.124,0 793.374,0 		"/>
	</g>
	<g>
		<polygon style="fill:#D3582D;" points="72.125,432.749 0,504.874 0,360.625 		"/>
		
			<rect x="21.125" y="309.624" transform="matrix(0.7071 -0.7071 0.7071 0.7071 -233.8751 156.6245)" style="fill:#FF6C35;" width="102" height="102"/>
	</g>
	<g>
		<polygon style="fill:#FF494E;" points="144.25,72.125 72.125,0 216.375,0 		"/>
		
			<rect x="165.375" y="21.125" transform="matrix(0.7071 0.7071 -0.7071 0.7071 114.3747 -131.8751)" style="fill:#D3353A;" width="102" height="102"/>
	</g>
	<g>
		
			<rect x="93.25" y="381.749" transform="matrix(-0.7071 0.7071 -0.7071 -0.7071 552.2498 636.7494)" style="fill:#FF494E;" width="102" height="102"/>
		
			<rect x="21.125" y="453.874" transform="matrix(-0.7071 0.7071 -0.7071 -0.7071 480.1247 810.8745)" style="fill:#D3353A;" width="102" height="102"/>
	</g>
	<g>
		
			<rect x="453.874" y="21.125" transform="matrix(0.7071 -0.7071 0.7071 0.7071 96.8742 378.1249)" style="fill:#FF494E;" width="102" height="102"/>
		<polygon style="fill:#D3353A;" points="649.124,0 576.999,72.125 504.874,0 		"/>
	</g>
	<g>
		
			<rect x="21.125" y="21.125" transform="matrix(-0.7071 0.7071 -0.7071 -0.7071 174.1249 72.1249)" style="fill:#009FC4;" width="102" height="102"/>
		<polygon style="fill:#288BBE;" points="0,72.125 72.125,144.25 0,216.375 		"/>
	</g>
	<g>
		
			<rect x="21.125" y="598.124" transform="matrix(-0.7071 0.7071 -0.7071 -0.7071 582.1249 1057.124)" style="fill:#288BBE;" width="102" height="102"/>
		<polygon style="fill:#009FC4;" points="0,649.124 72.125,721.249 0,793.374 		"/>
	</g>
	<g>
		
			<rect x="453.874" y="165.375" transform="matrix(-0.7071 -0.7071 0.7071 -0.7071 708.8742 726.3747)" style="fill:#009FC4;" width="102" height="102"/>
		
			<rect x="381.749" y="93.25" transform="matrix(-0.7071 -0.7071 0.7071 -0.7071 636.7491 552.25)" style="fill:#288BBE;" width="102" height="102"/>
	</g>
	<g>
		
			<rect x="93.25" y="237.5" transform="matrix(0.7071 -0.7071 0.7071 0.7071 -161.7502 186.4996)" style="fill:#00A58F;" width="102" height="102"/>
		
			<rect x="165.375" y="165.375" transform="matrix(0.7071 -0.7071 0.7071 0.7071 -89.6253 216.3747)" style="fill:#008A7D;" width="102" height="102"/>
	</g>
	<g>
		
			<rect x="598.124" y="21.125" transform="matrix(-0.7071 0.7071 -0.7071 -0.7071 1159.124 -335.8751)" style="fill:#FAC932;" width="102" height="102"/>
		
			<rect x="525.999" y="93.25" transform="matrix(-0.7071 0.7071 -0.7071 -0.7071 1086.9991 -161.7502)" style="fill:#F5B02E;" width="102" height="102"/>
	</g>
	<g>
		
			<rect x="237.5" y="854.625" transform="matrix(0.7071 -0.7071 0.7071 0.7071 -555.8742 469.2515)" style="fill:#D3353A;" width="102" height="102"/>
		
			<rect x="309.624" y="782.5" transform="matrix(0.7071 -0.7071 0.7071 0.7071 -483.7493 499.1266)" style="fill:#FF494E;" width="102" height="102"/>
	</g>
	<g>
		
			<rect x="165.375" y="926.75" transform="matrix(0.7071 0.7071 -0.7071 0.7071 754.7485 133.3764)" style="fill:#009FC4;" width="102" height="102"/>
		
			<rect x="237.5" y="998.875" transform="matrix(0.7071 0.7071 -0.7071 0.7071 826.8734 103.5013)" style="fill:#288BBE;" width="102" height="102"/>
	</g>
	<g>
		
			<rect x="381.749" y="854.625" transform="matrix(-0.7071 0.7071 -0.7071 -0.7071 1379.1232 1239.999)" style="fill:#FAC932;" width="102" height="102"/>
		
			<rect x="309.624" y="926.75" transform="matrix(-0.7071 0.7071 -0.7071 -0.7071 1306.9983 1414.124)" style="fill:#F5B02E;" width="102" height="102"/>
	</g>
	<g>
		
			<rect x="21.125" y="926.75" transform="matrix(-0.7071 -0.7071 0.7071 -0.7071 -568.2489 1720.124)" style="fill:#FAC932;" width="102" height="102"/>
		<polygon style="fill:#F5B02E;" points="0,833.5 72.125,905.625 0,977.75 		"/>
	</g>
	<g>
		
			<rect x="381.749" y="998.875" transform="matrix(-0.7071 0.7071 -0.7071 -0.7071 1481.1232 1486.2489)" style="fill:#FF6C35;" width="102" height="102"/>
		<polygon style="fill:#D3582D;" points="288.5,1122 360.625,1049.875 432.749,1122 		"/>
	</g>
	<g>
		<polygon style="fill:#FF494E;" points="144.25,1122 0,1122 72.125,1049.875 		"/>
		
			<rect x="93.25" y="998.875" transform="matrix(0.7071 -0.7071 0.7071 0.7071 -700.124 409.5013)" style="fill:#D3353A;" width="102" height="102"/>
	</g>
	<g>
		
			<rect x="453.874" y="926.75" transform="matrix(0.7071 -0.7071 0.7071 0.7071 -543.4996 643.3764)" style="fill:#00A58F;" width="102" height="102"/>
		
			<rect x="525.999" y="854.625" transform="matrix(0.7071 -0.7071 0.7071 0.7071 -471.3747 673.2515)" style="fill:#008A7D;" width="102" height="102"/>
	</g>
	<g>
		
			<rect x="165.375" y="598.124" transform="matrix(-0.7071 -0.7071 0.7071 -0.7071 -89.6253 1261.124)" style="fill:#00A58F;" width="102" height="102"/>
		
			<rect x="93.25" y="525.999" transform="matrix(-0.7071 -0.7071 0.7071 -0.7071 -161.7502 1086.9991)" style="fill:#008A7D;" width="102" height="102"/>
	</g>
	
		<linearGradient id="SVGID_00000033352568809554600190000017393549990190474644_" gradientUnits="userSpaceOnUse" x1="-2257.7285" y1="-1087.8008" x2="-2206.728" y2="-1087.8008" gradientTransform="matrix(-0.7071 -0.7071 0.7071 -0.7071 -773.1622 -2275.4675)">
		<stop  offset="0" style="stop-color:#FFFFFF"/>
		<stop  offset="1" style="stop-color:#BBBCBF"/>
	</linearGradient>
	<polygon style="fill:url(#SVGID_00000033352568809554600190000017393549990190474644_);" points="72.125,0 108.187,36.062 
		0,144.25 0,72.125 	"/>
	
		<linearGradient id="SVGID_00000129193329266472353640000005883674663831602586_" gradientUnits="userSpaceOnUse" x1="-844.8131" y1="672.0387" x2="-793.8126" y2="672.0387" gradientTransform="matrix(0.7071 -0.7071 0.7071 0.7071 230.3561 -964.3786)">
		<stop  offset="0" style="stop-color:#FFFFFF"/>
		<stop  offset="1" style="stop-color:#BBBCBF"/>
	</linearGradient>
	<polygon style="fill:url(#SVGID_00000129193329266472353640000005883674663831602586_);" points="216.375,144.25 180.312,180.312 
		36.062,36.062 72.125,0 	"/>
	
		<linearGradient id="SVGID_00000116218585023968377720000010513963126489212050_" gradientUnits="userSpaceOnUse" x1="-1142.5743" y1="941.0655" x2="-1091.574" y2="941.0655" gradientTransform="matrix(0.7071 -0.7071 0.7071 0.7071 791.611 -1401.2169)">
		<stop  offset="0" style="stop-color:#FFFFFF"/>
		<stop  offset="1" style="stop-color:#BBBCBF"/>
	</linearGradient>
	<polygon style="fill:url(#SVGID_00000116218585023968377720000010513963126489212050_);" points="721.249,72.125 685.187,108.187 
		613.062,36.062 649.124,0 	"/>
	
		<linearGradient id="SVGID_00000117670656201338117490000014379440087302116765_" gradientUnits="userSpaceOnUse" x1="-1164.5604" y1="-2401.0613" x2="-1113.5599" y2="-2401.0613" gradientTransform="matrix(-0.7071 0.7071 -0.7071 -0.7071 -2503.22 -423.5492)">
		<stop  offset="0" style="stop-color:#FFFFFF"/>
		<stop  offset="1" style="stop-color:#BBBCBF"/>
	</linearGradient>
	<polygon style="fill:url(#SVGID_00000117670656201338117490000014379440087302116765_);" points="0,432.749 36.062,468.812 
		0,504.874 	"/>
	
		<linearGradient id="SVGID_00000061451663601620271390000011358823515521549242_" gradientUnits="userSpaceOnUse" x1="-855.6837" y1="-2709.938" x2="-855.6837" y2="-2658.9375" gradientTransform="matrix(-0.7071 0.7071 -0.7071 -0.7071 -2503.22 -423.5492)">
		<stop  offset="0" style="stop-color:#FFFFFF"/>
		<stop  offset="1" style="stop-color:#BBBCBF"/>
	</linearGradient>
	<polygon style="fill:url(#SVGID_00000061451663601620271390000011358823515521549242_);" points="0,833.5 36.062,869.563 
		0,905.625 	"/>
	
		<linearGradient id="SVGID_00000119106839943078787010000014515563824838833337_" gradientUnits="userSpaceOnUse" x1="-640.8112" y1="748.5395" x2="-589.8106" y2="748.5395" gradientTransform="matrix(0.7071 -0.7071 0.7071 0.7071 230.3561 -964.3786)">
		<stop  offset="0" style="stop-color:#FFFFFF"/>
		<stop  offset="1" style="stop-color:#BBBCBF"/>
	</linearGradient>
	<polygon style="fill:url(#SVGID_00000119106839943078787010000014515563824838833337_);" points="360.625,0 324.562,36.062 
		288.5,0 	"/>
	
		<linearGradient id="SVGID_00000160159140120758014770000008690493848857256353_" gradientUnits="userSpaceOnUse" x1="-2789.0481" y1="-481.6498" x2="-2738.0476" y2="-481.6498" gradientTransform="matrix(-0.7071 -0.7071 0.7071 -0.7071 -1487.3116 -1262.8354)">
		<stop  offset="0" style="stop-color:#FFFFFF"/>
		<stop  offset="1" style="stop-color:#BBBCBF"/>
	</linearGradient>
	<polygon style="fill:url(#SVGID_00000160159140120758014770000008690493848857256353_);" points="144.25,977.75 180.312,1013.813 
		108.187,1085.938 72.125,1049.875 	"/>
	
		<linearGradient id="SVGID_00000016065749196564594830000002922333469523362730_" gradientUnits="userSpaceOnUse" x1="-1040.5735" y1="966.5657" x2="-989.573" y2="966.5657" gradientTransform="matrix(0.7071 -0.7071 0.7071 0.7071 791.611 -1401.2169)">
		<stop  offset="0" style="stop-color:#FFFFFF"/>
		<stop  offset="1" style="stop-color:#BBBCBF"/>
	</linearGradient>
	<polygon style="fill:url(#SVGID_00000016065749196564594830000002922333469523362730_);" points="793.374,0 757.311,36.062 
		721.249,0 	"/>
	
		<linearGradient id="SVGID_00000074413165162751688000000008310368044100864385_" gradientUnits="userSpaceOnUse" x1="-5706.9736" y1="-1342.6943" x2="-5655.98" y2="-1342.6943" gradientTransform="matrix(-0.3536 -0.3536 0.7071 -0.7071 -509.5987 -1935.5612)">
		<stop  offset="0" style="stop-color:#FFFFFF"/>
		<stop  offset="1" style="stop-color:#BBBCBF"/>
	</linearGradient>
	<polygon style="fill:url(#SVGID_00000074413165162751688000000008310368044100864385_);" points="649.124,905.625 667.155,923.656 
		468.812,1122 432.749,1122 	"/>
	<g>
		<circle style="fill:#FFFFFF;" cx="360.625" cy="977.75" r="9.36"/>
	</g>
	<g>
		<circle style="fill:#FFFFFF;" cx="288.5" cy="576.999" r="9.36"/>
	</g>
	<g>
		<circle style="fill:#FFFFFF;" cx="216.375" cy="216.375" r="9.36"/>
	</g>
	<g>
		<circle style="fill:#FFFFFF;" cx="24.013" cy="360.625" r="9.36"/>
		<circle style="fill:#FFFFFF;" cx="120.237" cy="360.625" r="9.36"/>
	</g>
	<g>
		<circle style="fill:#FFFFFF;" cx="432.749" cy="96.138" r="9.36"/>
		<circle style="fill:#FFFFFF;" cx="432.749" cy="192.362" r="9.36"/>
	</g>
	<g>
		<circle style="fill:#FFFFFF;" cx="360.625" cy="833.5" r="9.36"/>
		<circle style="fill:#FFFFFF;" cx="312.512" cy="833.5" r="9.36"/>
		<circle style="fill:#FFFFFF;" cx="408.737" cy="833.5" r="9.36"/>
	</g>
	<g>
		<circle style="fill:#FFFFFF;" cx="216.375" cy="977.75" r="9.36"/>
		<circle style="fill:#FFFFFF;" cx="216.375" cy="929.638" r="9.36"/>
		<circle style="fill:#FFFFFF;" cx="216.375" cy="1025.862" r="9.36"/>
	</g>
	<g>
		<circle style="fill:#FFFFFF;" cx="144.25" cy="576.999" r="9.36"/>
		<circle style="fill:#FFFFFF;" cx="96.138" cy="576.999" r="9.36"/>
		<circle style="fill:#FFFFFF;" cx="192.362" cy="576.999" r="9.36"/>
	</g>
	<g>
		<circle style="fill:#FFFFFF;" cx="72.125" cy="504.874" r="9.36"/>
		<circle style="fill:#FFFFFF;" cx="72.125" cy="552.986" r="9.36"/>
		<circle style="fill:#FFFFFF;" cx="72.125" cy="456.762" r="9.36"/>
	</g>
	<g>
		<circle style="fill:#FFFFFF;" cx="576.999" cy="144.25" r="9.36"/>
		<circle style="fill:#FFFFFF;" cx="528.887" cy="144.25" r="9.36"/>
		<circle style="fill:#FFFFFF;" cx="625.111" cy="144.25" r="9.36"/>
	</g>
	<g>
		<circle style="fill:#FFFFFF;" cx="24.013" cy="977.75" r="9.36"/>
		<circle style="fill:#FFFFFF;" cx="120.237" cy="977.75" r="9.36"/>
		<circle style="fill:#FFFFFF;" cx="72.125" cy="929.638" r="9.36"/>
		<circle style="fill:#FFFFFF;" cx="72.125" cy="1025.862" r="9.36"/>
	</g>
	<g>
		<circle style="fill:#FFFFFF;" cx="168.263" cy="72.125" r="9.36"/>
		<circle style="fill:#FFFFFF;" cx="264.487" cy="72.125" r="9.36"/>
		<circle style="fill:#FFFFFF;" cx="216.375" cy="24.013" r="9.36"/>
		<circle style="fill:#FFFFFF;" cx="216.375" cy="120.237" r="9.36"/>
	</g>
	<g>
		<circle style="fill:#FFFFFF;" cx="504.874" cy="977.75" r="9.36"/>
		<circle style="fill:#FFFFFF;" cx="456.762" cy="977.75" r="9.36"/>
		<circle style="fill:#FFFFFF;" cx="552.986" cy="977.75" r="9.36"/>
		<circle style="fill:#FFFFFF;" cx="504.874" cy="929.638" r="9.36"/>
		<circle style="fill:#FFFFFF;" cx="504.874" cy="1025.862" r="9.36"/>
	</g>
	<g>
		<circle style="fill:#FFFFFF;" cx="48.069" cy="240.431" r="9.36"/>
		<circle style="fill:#FFFFFF;" cx="24.013" cy="216.375" r="9.36"/>
		<circle style="fill:#FFFFFF;" cx="120.237" cy="216.375" r="9.36"/>
		<circle style="fill:#FFFFFF;" cx="72.125" cy="168.263" r="9.36"/>
		<circle style="fill:#FFFFFF;" cx="72.125" cy="264.487" r="9.36"/>
		<circle style="fill:#FFFFFF;" cx="96.181" cy="192.319" r="9.36"/>
	</g>
	
		<linearGradient id="SVGID_00000044177277400029664170000001181418728111039146_" gradientUnits="userSpaceOnUse" x1="-3081.8535" y1="-826.9833" x2="-3030.853" y2="-826.9833" gradientTransform="matrix(-0.7071 -0.7071 0.7071 -0.7071 -981.3571 -2655.7512)">
		<stop  offset="0" style="stop-color:#FFFFFF"/>
		<stop  offset="1" style="stop-color:#BBBCBF"/>
	</linearGradient>
	<polygon style="fill:url(#SVGID_00000044177277400029664170000001181418728111039146_);" points="649.124,0 685.187,36.062 
		540.937,180.312 504.874,144.25 	"/>
	
		<linearGradient id="SVGID_00000036942792034300210840000012425321199000489605_" gradientUnits="userSpaceOnUse" x1="-1346.5764" y1="839.0645" x2="-1295.5759" y2="839.0645" gradientTransform="matrix(0.7071 -0.7071 0.7071 0.7071 791.611 -1401.2169)">
		<stop  offset="0" style="stop-color:#FFFFFF"/>
		<stop  offset="1" style="stop-color:#BBBCBF"/>
	</linearGradient>
	<polygon style="fill:url(#SVGID_00000036942792034300210840000012425321199000489605_);" points="504.874,144.25 468.812,180.312 
		396.687,108.187 432.749,72.125 	"/>
	<g>
		<path style="fill:#FFFFFF;" d="M559.562,30.675c3.655-3.655,3.655-9.582,0-13.237c-3.655-3.655-9.582-3.655-13.237,0
			c-3.656,3.656-3.656,9.582,0,13.237C549.98,34.33,555.906,34.33,559.562,30.675z"/>
		<path style="fill:#FFFFFF;" d="M535.506,6.619c1.828-1.828,2.742-4.223,2.742-6.619h-18.72c0,2.396,0.914,4.791,2.741,6.619
			C525.924,10.274,531.85,10.274,535.506,6.619z"/>
		<path style="fill:#FFFFFF;" d="M631.73,6.619c1.828-1.828,2.741-4.223,2.741-6.619h-18.72c0,2.396,0.914,4.791,2.742,6.619
			C622.148,10.274,628.075,10.274,631.73,6.619z"/>
		<path style="fill:#FFFFFF;" d="M570.38,41.493c-3.655,3.655-3.655,9.582,0,13.237c3.656,3.655,9.582,3.655,13.238,0
			c3.655-3.655,3.655-9.582,0-13.237C579.962,37.838,574.036,37.838,570.38,41.493z"/>
	</g>
	
		<linearGradient id="SVGID_00000167367121871328975820000001672271578450844043_" gradientUnits="userSpaceOnUse" x1="-1142.5745" y1="864.5648" x2="-1091.574" y2="864.5648" gradientTransform="matrix(0.7071 -0.7071 0.7071 0.7071 791.611 -1401.2169)">
		<stop  offset="0" style="stop-color:#FFFFFF"/>
		<stop  offset="1" style="stop-color:#BBBCBF"/>
	</linearGradient>
	<polygon style="fill:url(#SVGID_00000167367121871328975820000001672271578450844043_);" points="649.124,0 613.062,36.062 
		576.999,0 	"/>
	
		<linearGradient id="SVGID_00000163768693781054691330000008585430677746035593_" gradientUnits="userSpaceOnUse" x1="-742.8121" y1="697.539" x2="-691.8116" y2="697.539" gradientTransform="matrix(0.7071 -0.7071 0.7071 0.7071 230.3561 -964.3786)">
		<stop  offset="0" style="stop-color:#FFFFFF"/>
		<stop  offset="1" style="stop-color:#BBBCBF"/>
	</linearGradient>
	<polygon style="fill:url(#SVGID_00000163768693781054691330000008585430677746035593_);" points="288.5,72.125 252.437,108.187 
		144.25,0 216.375,0 	"/>
	<g>
		<path style="fill:#FFFFFF;" d="M6.619,102.756c3.656-3.655,3.656-9.582,0-13.237C4.791,87.691,2.395,86.777,0,86.777v18.721
			C2.395,105.498,4.791,104.584,6.619,102.756z"/>
		<path style="fill:#FFFFFF;" d="M6.619,185.743c-1.828-1.828-4.223-2.742-6.619-2.742v18.721c2.395,0,4.791-0.914,6.619-2.742
			C10.274,195.325,10.274,189.399,6.619,185.743z"/>
		<circle style="fill:#FFFFFF;" cx="48.112" cy="144.25" r="9.36"/>
		<path style="fill:#FFFFFF;" d="M30.675,174.924c3.655-3.655,3.655-9.582,0-13.237c-3.656-3.655-9.582-3.655-13.237,0
			c-3.655,3.655-3.655,9.582,0,13.237C21.093,178.58,27.019,178.58,30.675,174.924z"/>
	</g>
	
		<linearGradient id="SVGID_00000013189496349704444550000010319226149743960725_" gradientUnits="userSpaceOnUse" x1="-2687.3445" y1="-841.5085" x2="-2636.3442" y2="-841.5085" gradientTransform="matrix(-0.7071 -0.7071 0.7071 -0.7071 -1197.0034 -2314.9397)">
		<stop  offset="0" style="stop-color:#FFFFFF"/>
		<stop  offset="1" style="stop-color:#BBBCBF"/>
	</linearGradient>
	<polygon style="fill:url(#SVGID_00000013189496349704444550000010319226149743960725_);" points="144.25,72.125 180.312,108.187 
		36.062,252.437 0,216.375 	"/>
	
		<linearGradient id="SVGID_00000008852214252559693570000011394223203355548048_" gradientUnits="userSpaceOnUse" x1="-2789.3455" y1="-841.5085" x2="-2738.3452" y2="-841.5085" gradientTransform="matrix(-0.7071 -0.7071 0.7071 -0.7071 -1197.0034 -2314.9397)">
		<stop  offset="0" style="stop-color:#FFFFFF"/>
		<stop  offset="1" style="stop-color:#BBBCBF"/>
	</linearGradient>
	<polygon style="fill:url(#SVGID_00000008852214252559693570000011394223203355548048_);" points="216.375,144.25 252.437,180.312 
		108.187,324.562 72.125,288.5 	"/>
	
		<linearGradient id="SVGID_00000086651814894101061290000016479136710028894904_" gradientUnits="userSpaceOnUse" x1="-1002.0618" y1="742.2991" x2="-951.0613" y2="742.2991" gradientTransform="matrix(0.7071 -0.7071 0.7071 0.7071 255.8031 -872.8131)">
		<stop  offset="0" style="stop-color:#FFFFFF"/>
		<stop  offset="1" style="stop-color:#BBBCBF"/>
	</linearGradient>
	<polygon style="fill:url(#SVGID_00000086651814894101061290000016479136710028894904_);" points="144.25,360.625 108.187,396.687 
		36.062,324.562 72.125,288.5 	"/>
	
		<linearGradient id="SVGID_00000031900363711468327670000015970277568638340776_" gradientUnits="userSpaceOnUse" x1="-2891.3464" y1="-1045.5105" x2="-2840.3459" y2="-1045.5105" gradientTransform="matrix(-0.7071 -0.7071 0.7071 -0.7071 -1197.0034 -2314.9397)">
		<stop  offset="0" style="stop-color:#FFFFFF"/>
		<stop  offset="1" style="stop-color:#BBBCBF"/>
	</linearGradient>
	<polygon style="fill:url(#SVGID_00000031900363711468327670000015970277568638340776_);" points="144.25,360.625 180.312,396.687 
		36.062,540.937 0,504.874 	"/>
	
		<linearGradient id="SVGID_00000176018552938896957260000012896228159852415146_" gradientUnits="userSpaceOnUse" x1="-2993.3477" y1="-1045.5105" x2="-2942.3472" y2="-1045.5105" gradientTransform="matrix(-0.7071 -0.7071 0.7071 -0.7071 -1197.0034 -2314.9397)">
		<stop  offset="0" style="stop-color:#FFFFFF"/>
		<stop  offset="1" style="stop-color:#BBBCBF"/>
	</linearGradient>
	<polygon style="fill:url(#SVGID_00000176018552938896957260000012896228159852415146_);" points="216.375,432.749 252.437,468.812 
		108.187,613.062 72.125,576.999 	"/>
	
		<linearGradient id="SVGID_00000134213961207243923940000007874466708616698281_" gradientUnits="userSpaceOnUse" x1="-1565.3022" y1="-2348.824" x2="-1514.3019" y2="-2348.824" gradientTransform="matrix(-0.7071 0.7071 -0.7071 -0.7071 -2623.429 22.971)">
		<stop  offset="0" style="stop-color:#FFFFFF"/>
		<stop  offset="1" style="stop-color:#BBBCBF"/>
	</linearGradient>
	<polygon style="fill:url(#SVGID_00000134213961207243923940000007874466708616698281_);" points="72.125,576.999 108.187,540.937 
		180.312,613.062 144.25,649.124 	"/>
	<g>
		<path style="fill:#FFFFFF;" d="M6.619,714.63c-1.828-1.828-4.223-2.742-6.619-2.742v18.72c2.395,0,4.791-0.914,6.619-2.741
			C10.274,724.212,10.274,718.286,6.619,714.63z"/>
		<circle style="fill:#FFFFFF;" cx="48.112" cy="721.249" r="9.36"/>
		<path style="fill:#FFFFFF;" d="M6.619,679.755c3.656-3.655,3.656-9.582,0-13.237c-1.828-1.828-4.223-2.742-6.619-2.742v18.721
			C2.395,682.497,4.791,681.583,6.619,679.755z"/>
		<path style="fill:#FFFFFF;" d="M6.619,762.742c-1.828-1.828-4.223-2.742-6.619-2.742v18.721c2.395,0,4.791-0.914,6.619-2.742
			C10.274,772.324,10.274,766.398,6.619,762.742z"/>
	</g>
	
		<linearGradient id="SVGID_00000154387665028744399910000003847791294362849429_" gradientUnits="userSpaceOnUse" x1="-960.5585" y1="-2605.0632" x2="-909.558" y2="-2605.0632" gradientTransform="matrix(-0.7071 0.7071 -0.7071 -0.7071 -2503.22 -423.5492)">
		<stop  offset="0" style="stop-color:#FFFFFF"/>
		<stop  offset="1" style="stop-color:#BBBCBF"/>
	</linearGradient>
	<polygon style="fill:url(#SVGID_00000154387665028744399910000003847791294362849429_);" points="0,721.249 36.062,757.311 
		0,793.374 	"/>
	
		<linearGradient id="SVGID_00000074407463732865301600000002223586064759034029_" gradientUnits="userSpaceOnUse" x1="-1667.3032" y1="-2399.8245" x2="-1616.3029" y2="-2399.8245" gradientTransform="matrix(-0.7071 0.7071 -0.7071 -0.7071 -2623.429 22.971)">
		<stop  offset="0" style="stop-color:#FFFFFF"/>
		<stop  offset="1" style="stop-color:#BBBCBF"/>
	</linearGradient>
	<polygon style="fill:url(#SVGID_00000074407463732865301600000002223586064759034029_);" points="144.25,504.874 180.312,468.812 
		324.562,613.062 288.5,649.124 	"/>
	<g>
		<path style="fill:#FFFFFF;" d="M17.394,1115.381c-1.828,1.828-2.741,4.223-2.741,6.619h18.72c0-2.396-0.914-4.791-2.742-6.619
			C26.976,1111.726,21.05,1111.726,17.394,1115.381z"/>
		<path style="fill:#FFFFFF;" d="M113.618,1115.381c-1.828,1.828-2.742,4.223-2.742,6.619h18.721c0-2.396-0.914-4.791-2.742-6.619
			C123.2,1111.726,117.274,1111.726,113.618,1115.381z"/>
	</g>
	
		<linearGradient id="SVGID_00000141437141655134118810000004895702958555258261_" gradientUnits="userSpaceOnUse" x1="-992.6252" y1="-2050.2666" x2="-941.6248" y2="-2050.2666" gradientTransform="matrix(-0.7071 0.7071 -0.7071 -0.7071 -1935.2542 229.892)">
		<stop  offset="0" style="stop-color:#FFFFFF"/>
		<stop  offset="1" style="stop-color:#BBBCBF"/>
	</linearGradient>
	<polygon style="fill:url(#SVGID_00000141437141655134118810000004895702958555258261_);" points="144.25,977.75 180.312,941.688 
		252.437,1013.813 216.375,1049.875 	"/>
	
		<linearGradient id="SVGID_00000005244620901443325730000017492698478810163102_" gradientUnits="userSpaceOnUse" x1="-1094.6261" y1="-2101.2671" x2="-1043.6257" y2="-2101.2671" gradientTransform="matrix(-0.7071 0.7071 -0.7071 -0.7071 -1935.2542 229.892)">
		<stop  offset="0" style="stop-color:#FFFFFF"/>
		<stop  offset="1" style="stop-color:#BBBCBF"/>
	</linearGradient>
	<polygon style="fill:url(#SVGID_00000005244620901443325730000017492698478810163102_);" points="216.375,905.625 252.437,869.563 
		396.687,1013.813 360.625,1049.875 	"/>
	
		<linearGradient id="SVGID_00000073687442222196973540000004541183619751110327_" gradientUnits="userSpaceOnUse" x1="-2978.0571" y1="-460.7195" x2="-2927.0566" y2="-460.7195" gradientTransform="matrix(-0.7071 -0.7071 0.7071 -0.7071 -1383.3225 -1489.8711)">
		<stop  offset="0" style="stop-color:#FFFFFF"/>
		<stop  offset="1" style="stop-color:#BBBCBF"/>
	</linearGradient>
	<polygon style="fill:url(#SVGID_00000073687442222196973540000004541183619751110327_);" points="432.749,833.5 468.812,869.563 
		324.562,1013.813 288.5,977.75 	"/>
	<path style="fill:#FFFFFF;" d="M354.006,1115.381c-1.828,1.828-2.742,4.223-2.742,6.619h18.721c0-2.396-0.914-4.791-2.742-6.619
		C363.588,1111.726,357.661,1111.726,354.006,1115.381z"/>
	
		<linearGradient id="SVGID_00000060031299081978495680000017522623005903938214_" gradientUnits="userSpaceOnUse" x1="-992.6252" y1="-2228.7683" x2="-941.6248" y2="-2228.7683" gradientTransform="matrix(-0.7071 0.7071 -0.7071 -0.7071 -1935.2542 229.892)">
		<stop  offset="0" style="stop-color:#FFFFFF"/>
		<stop  offset="1" style="stop-color:#BBBCBF"/>
	</linearGradient>
	<polygon style="fill:url(#SVGID_00000060031299081978495680000017522623005903938214_);" points="288.5,1122 324.562,1085.938 
		360.625,1122 	"/>
	
		<linearGradient id="SVGID_00000062890337836105287720000001520355206600668081_" gradientUnits="userSpaceOnUse" x1="-1196.6272" y1="-2254.2686" x2="-1145.6266" y2="-2254.2686" gradientTransform="matrix(-0.7071 0.7071 -0.7071 -0.7071 -1935.2542 229.892)">
		<stop  offset="0" style="stop-color:#FFFFFF"/>
		<stop  offset="1" style="stop-color:#BBBCBF"/>
	</linearGradient>
	<polygon style="fill:url(#SVGID_00000062890337836105287720000001520355206600668081_);" points="432.749,977.75 468.812,941.688 
		540.937,1013.813 504.874,1049.875 	"/>
	
		<linearGradient id="SVGID_00000093868069024114370940000004755166598321036188_" gradientUnits="userSpaceOnUse" x1="-3080.0581" y1="-460.7195" x2="-3029.0574" y2="-460.7195" gradientTransform="matrix(-0.7071 -0.7071 0.7071 -0.7071 -1383.3225 -1489.8711)">
		<stop  offset="0" style="stop-color:#FFFFFF"/>
		<stop  offset="1" style="stop-color:#BBBCBF"/>
	</linearGradient>
	<polygon style="fill:url(#SVGID_00000093868069024114370940000004755166598321036188_);" points="504.874,905.625 540.937,941.688 
		396.687,1085.938 360.625,1049.875 	"/>
</g>
</svg>
