<?xml version="1.0" standalone="no"?>
<!DOCTYPE svg PUBLIC "-//W3C//DTD SVG 20010904//EN"
 "http://www.w3.org/TR/2001/REC-SVG-20010904/DTD/svg10.dtd">
<svg version="1.0" xmlns="http://www.w3.org/2000/svg"
 width="1280.000000pt" height="1280.000000pt" viewBox="0 0 1280.000000 1280.000000"
 preserveAspectRatio="xMidYMid meet">
<g transform="translate(0.000000,1280.000000) scale(0.100000,-0.100000)"
fill="#000000" stroke="none">
<path d="M0 12165 l0 -635 635 0 635 0 0 635 0 635 -635 0 -635 0 0 -635z"/>
<path d="M2570 12165 l0 -635 630 0 630 0 0 635 0 635 -630 0 -630 0 0 -635z"/>
<path d="M5130 12165 l0 -635 630 0 630 0 0 635 0 635 -630 0 -630 0 0 -635z"/>
<path d="M7690 12165 l0 -635 630 0 630 0 0 635 0 635 -630 0 -630 0 0 -635z"/>
<path d="M10250 12165 l0 -635 630 0 630 0 0 635 0 635 -630 0 -630 0 0 -635z"/>
<path d="M1290 10880 l0 -630 630 0 630 0 0 630 0 630 -630 0 -630 0 0 -630z"/>
<path d="M3850 10880 l0 -630 630 0 630 0 0 630 0 630 -630 0 -630 0 0 -630z"/>
<path d="M6410 10880 l0 -630 630 0 630 0 0 630 0 630 -630 0 -630 0 0 -630z"/>
<path d="M8970 10880 l0 -630 630 0 630 0 0 630 0 630 -630 0 -630 0 0 -630z"/>
<path d="M11530 10880 l0 -630 635 0 635 0 0 630 0 630 -635 0 -635 0 0 -630z"/>
<path d="M0 9600 l0 -630 635 0 635 0 0 630 0 630 -635 0 -635 0 0 -630z"/>
<path d="M2570 9600 l0 -630 630 0 630 0 0 630 0 630 -630 0 -630 0 0 -630z"/>
<path d="M5130 9600 l0 -630 630 0 630 0 0 630 0 630 -630 0 -630 0 0 -630z"/>
<path d="M7690 9600 l0 -630 630 0 630 0 0 630 0 630 -630 0 -630 0 0 -630z"/>
<path d="M10250 9600 l0 -630 630 0 630 0 0 630 0 630 -630 0 -630 0 0 -630z"/>
<path d="M1290 8320 l0 -630 630 0 630 0 0 630 0 630 -630 0 -630 0 0 -630z"/>
<path d="M3850 8320 l0 -630 630 0 630 0 0 630 0 630 -630 0 -630 0 0 -630z"/>
<path d="M6410 8320 l0 -630 630 0 630 0 0 630 0 630 -630 0 -630 0 0 -630z"/>
<path d="M8970 8320 l0 -630 630 0 630 0 0 630 0 630 -630 0 -630 0 0 -630z"/>
<path d="M11530 8320 l0 -630 635 0 635 0 0 630 0 630 -635 0 -635 0 0 -630z"/>
<path d="M0 7040 l0 -630 635 0 635 0 0 630 0 630 -635 0 -635 0 0 -630z"/>
<path d="M2570 7040 l0 -630 630 0 630 0 0 630 0 630 -630 0 -630 0 0 -630z"/>
<path d="M5130 7040 l0 -630 630 0 630 0 0 630 0 630 -630 0 -630 0 0 -630z"/>
<path d="M7690 7040 l0 -630 630 0 630 0 0 630 0 630 -630 0 -630 0 0 -630z"/>
<path d="M10250 7040 l0 -630 630 0 630 0 0 630 0 630 -630 0 -630 0 0 -630z"/>
<path d="M1290 5760 l0 -630 630 0 630 0 0 630 0 630 -630 0 -630 0 0 -630z"/>
<path d="M3850 5760 l0 -630 630 0 630 0 0 630 0 630 -630 0 -630 0 0 -630z"/>
<path d="M6410 5760 l0 -630 630 0 630 0 0 630 0 630 -630 0 -630 0 0 -630z"/>
<path d="M8970 5760 l0 -630 630 0 630 0 0 630 0 630 -630 0 -630 0 0 -630z"/>
<path d="M11530 5760 l0 -630 635 0 635 0 0 630 0 630 -635 0 -635 0 0 -630z"/>
<path d="M0 4480 l0 -630 635 0 635 0 0 630 0 630 -635 0 -635 0 0 -630z"/>
<path d="M2570 4480 l0 -630 630 0 630 0 0 630 0 630 -630 0 -630 0 0 -630z"/>
<path d="M5130 4480 l0 -630 630 0 630 0 0 630 0 630 -630 0 -630 0 0 -630z"/>
<path d="M7690 4480 l0 -630 630 0 630 0 0 630 0 630 -630 0 -630 0 0 -630z"/>
<path d="M10250 4480 l0 -630 630 0 630 0 0 630 0 630 -630 0 -630 0 0 -630z"/>
<path d="M1290 3200 l0 -630 630 0 630 0 0 630 0 630 -630 0 -630 0 0 -630z"/>
<path d="M3850 3200 l0 -630 630 0 630 0 0 630 0 630 -630 0 -630 0 0 -630z"/>
<path d="M6410 3200 l0 -630 630 0 630 0 0 630 0 630 -630 0 -630 0 0 -630z"/>
<path d="M8970 3200 l0 -630 630 0 630 0 0 630 0 630 -630 0 -630 0 0 -630z"/>
<path d="M11530 3200 l0 -630 635 0 635 0 0 630 0 630 -635 0 -635 0 0 -630z"/>
<path d="M0 1920 l0 -630 635 0 635 0 0 630 0 630 -635 0 -635 0 0 -630z"/>
<path d="M2570 1920 l0 -630 630 0 630 0 0 630 0 630 -630 0 -630 0 0 -630z"/>
<path d="M5130 1920 l0 -630 630 0 630 0 0 630 0 630 -630 0 -630 0 0 -630z"/>
<path d="M7690 1920 l0 -630 630 0 630 0 0 630 0 630 -630 0 -630 0 0 -630z"/>
<path d="M10250 1920 l0 -630 630 0 630 0 0 630 0 630 -630 0 -630 0 0 -630z"/>
<path d="M1290 635 l0 -635 630 0 630 0 0 635 0 635 -630 0 -630 0 0 -635z"/>
<path d="M3850 635 l0 -635 630 0 630 0 0 635 0 635 -630 0 -630 0 0 -635z"/>
<path d="M6410 635 l0 -635 630 0 630 0 0 635 0 635 -630 0 -630 0 0 -635z"/>
<path d="M8970 635 l0 -635 630 0 630 0 0 635 0 635 -630 0 -630 0 0 -635z"/>
<path d="M11530 635 l0 -635 635 0 635 0 0 635 0 635 -635 0 -635 0 0 -635z"/>
</g>
</svg>
